<svg width="32" height="31" viewBox="0 0 32 31" fill="none" xmlns="http://www.w3.org/2000/svg">
<g id="Briefcase / undefined">
<path id="Vector" d="M13.7823 4.50426H18.2177C18.7426 4.50426 19.1681 4.92978 19.1681 5.45469V7.67236H12.8319V5.45469C12.8319 4.92978 13.2574 4.50426 13.7823 4.50426ZM10.9311 5.45469V7.67236H8.71338C6.43877 7.67236 4.59485 9.51628 4.59485 11.7909V13.6918C4.59485 14.9165 5.58773 15.9094 6.81252 15.9094H13.4655V15.2758C13.4655 14.5759 14.0329 14.0086 14.7328 14.0086H17.2673C17.9672 14.0086 18.5345 14.5759 18.5345 15.2758V15.9094H25.1875C26.4123 15.9094 27.4052 14.9165 27.4052 13.6918V11.7909C27.4052 9.51628 25.5612 7.67236 23.2867 7.67236H21.069V5.45469C21.069 3.87996 19.7924 2.60339 18.2177 2.60339H13.7823C12.2076 2.60339 10.9311 3.87996 10.9311 5.45469ZM27.4052 17.1629C26.7651 17.5727 26.004 17.8103 25.1875 17.8103H18.5345C18.5345 18.5102 17.9672 19.0775 17.2673 19.0775H14.7328C14.0329 19.0775 13.4655 18.5102 13.4655 17.8103H6.81252C5.99601 17.8103 5.235 17.5727 4.59485 17.1629V21.2952C4.59485 23.5698 6.43877 25.4137 8.71338 25.4137H23.2867C25.5612 25.4137 27.4052 23.5698 27.4052 21.2952V17.1629Z" fill="#384D6C"/>
</g>
</svg>
